{
	"asset":{
		"generator":"Khronos glTF Blender I/O v5.0.21",
		"version":"2.0"
	},
	"scene":0,
	"scenes":[
		{
			"name":"Scene",
			"nodes":[
				0
			]
		}
	],
	"nodes":[
		{
			"mesh":0,
			"name":"Sickle.004"
		}
	],
	"materials":[
		{
			"doubleSided":true,
			"name":"ColorAtlas",
			"pbrMetallicRoughness":{
				"baseColorTexture":{
					"index":0
				},
				"metallicFactor":0,
				"roughnessFactor":0.5
			}
		}
	],
	"meshes":[
		{
			"name":"__EXPORT_MESH__Sickle.006",
			"primitives":[
				{
					"attributes":{
						"POSITION":0,
						"NORMAL":1,
						"TEXCOORD_0":2,
						"TANGENT":3
					},
					"indices":4,
					"material":0
				},
				{
					"attributes":{
						"POSITION":5,
						"NORMAL":6,
						"TEXCOORD_0":7,
						"TANGENT":8
					},
					"indices":9,
					"material":0
				}
			]
		}
	],
	"textures":[
		{
			"sampler":0,
			"source":0
		}
	],
	"images":[
		{
			"mimeType":"image/png",
			"name":"ColorAtlas",
			"uri":"textures/ColorAtlas.png"
		}
	],
	"accessors":[
		{
			"bufferView":0,
			"componentType":5126,
			"count":138,
			"max":[
				0.0788147896528244,
				0.8983340859413147,
				0.013113133609294891
			],
			"min":[
				-0.37507137656211853,
				0.4638572037220001,
				-0.02802252024412155
			],
			"type":"VEC3"
		},
		{
			"bufferView":1,
			"componentType":5126,
			"count":138,
			"type":"VEC3"
		},
		{
			"bufferView":2,
			"componentType":5126,
			"count":138,
			"type":"VEC2"
		},
		{
			"bufferView":3,
			"componentType":5126,
			"count":138,
			"type":"VEC4"
		},
		{
			"bufferView":4,
			"componentType":5123,
			"count":138,
			"type":"SCALAR"
		},
		{
			"bufferView":5,
			"componentType":5126,
			"count":26,
			"max":[
				0.09904289990663528,
				0.49654749035835266,
				0.085838682949543
			],
			"min":[
				-0.0909372866153717,
				-0.001685083843767643,
				-0.08399289101362228
			],
			"type":"VEC3"
		},
		{
			"bufferView":6,
			"componentType":5126,
			"count":26,
			"type":"VEC3"
		},
		{
			"bufferView":7,
			"componentType":5126,
			"count":26,
			"type":"VEC2"
		},
		{
			"bufferView":8,
			"componentType":5126,
			"count":26,
			"type":"VEC4"
		},
		{
			"bufferView":9,
			"componentType":5123,
			"count":84,
			"type":"SCALAR"
		}
	],
	"bufferViews":[
		{
			"buffer":0,
			"byteLength":1656,
			"byteOffset":0,
			"target":34962
		},
		{
			"buffer":0,
			"byteLength":1656,
			"byteOffset":1656,
			"target":34962
		},
		{
			"buffer":0,
			"byteLength":1104,
			"byteOffset":3312,
			"target":34962
		},
		{
			"buffer":0,
			"byteLength":2208,
			"byteOffset":4416,
			"target":34962
		},
		{
			"buffer":0,
			"byteLength":276,
			"byteOffset":6624,
			"target":34963
		},
		{
			"buffer":0,
			"byteLength":312,
			"byteOffset":6900,
			"target":34962
		},
		{
			"buffer":0,
			"byteLength":312,
			"byteOffset":7212,
			"target":34962
		},
		{
			"buffer":0,
			"byteLength":208,
			"byteOffset":7524,
			"target":34962
		},
		{
			"buffer":0,
			"byteLength":416,
			"byteOffset":7732,
			"target":34962
		},
		{
			"buffer":0,
			"byteLength":168,
			"byteOffset":8148,
			"target":34963
		}
	],
	"samplers":[
		{
			"magFilter":9729,
			"minFilter":9987
		}
	],
	"buffers":[
		{
			"byteLength":8316,
			"uri":"Sickle.bin"
		}
	]
}
